<svg width="21" height="20" viewBox="0 0 21 20" fill="none" xmlns="http://www.w3.org/2000/svg">
<path d="M8.50593 17.3096V14.754C8.50592 14.1039 9.03585 13.5758 9.69243 13.5714H12.0975C12.7572 13.5714 13.292 14.1009 13.292 14.754V14.754V17.3175C13.2919 17.8694 13.7368 18.3205 14.2941 18.3334H15.8975C17.4959 18.3334 18.7916 17.0506 18.7916 15.4683V15.4683V8.19828C18.783 7.57577 18.4878 6.99121 17.9899 6.61094L12.5064 2.23783C11.5457 1.47639 10.1801 1.47639 9.21943 2.23783L3.75994 6.61888C3.26013 6.9976 2.96441 7.58314 2.95825 8.20621V15.4683C2.95825 17.0506 4.25398 18.3334 5.85234 18.3334H7.45572C8.02688 18.3334 8.4899 17.875 8.4899 17.3096V17.3096" stroke="#9CA3AF" stroke-width="1.5" stroke-linecap="round" stroke-linejoin="round"/>
</svg>
